<?xml version="1.0" encoding="UTF-8" standalone="no"?>
<!DOCTYPE svg PUBLIC "-//W3C//DTD SVG 1.1//EN"
 "http://www.w3.org/Graphics/SVG/1.1/DTD/svg11.dtd">
<!-- Generated by graphviz version 2.43.0 (0)
 -->
<!-- Title: pastafarianism Pages: 1 -->
<svg width="1034pt" height="260pt"
 viewBox="0.00 0.00 1034.43 260.00" xmlns="http://www.w3.org/2000/svg" xmlns:xlink="http://www.w3.org/1999/xlink">
<g id="graph0" class="graph" transform="scale(1 1) rotate(0) translate(4 256)">
<title>pastafarianism</title>
<polygon fill="white" stroke="transparent" points="-4,4 -4,-256 1030.43,-256 1030.43,4 -4,4"/>
<!-- localizationTaskTree -->
<g id="node1" class="node">
<title>localizationTaskTree</title>
<polygon fill="cyan" stroke="black" points="532.69,-226.54 532.69,-241.46 492.28,-252 435.13,-252 394.72,-241.46 394.72,-226.54 435.13,-216 492.28,-216 532.69,-226.54"/>
<text text-anchor="middle" x="463.7" y="-231.8" font-family="Times,serif" font-size="9.00">localizationTaskTree</text>
</g>
<!-- OneShot -->
<g id="node2" class="node">
<title>OneShot</title>
<ellipse fill="ghostwhite" stroke="black" cx="250.7" cy="-162" rx="32.16" ry="18"/>
<text text-anchor="middle" x="250.7" y="-159.8" font-family="Times,serif" font-size="9.00">OneShot</text>
</g>
<!-- localizationTaskTree&#45;&gt;OneShot -->
<g id="edge1" class="edge">
<title>localizationTaskTree&#45;&gt;OneShot</title>
<path fill="none" stroke="black" d="M422.13,-219.34C383.01,-206.48 324.99,-187.41 287.51,-175.09"/>
<polygon fill="black" stroke="black" points="288.57,-171.76 277.98,-171.96 286.39,-178.41 288.57,-171.76"/>
</g>
<!-- Sequence -->
<g id="node5" class="node">
<title>Sequence</title>
<polygon fill="orange" stroke="black" points="500.7,-180 426.7,-180 426.7,-144 500.7,-144 500.7,-180"/>
<text text-anchor="middle" x="463.7" y="-159.8" font-family="Times,serif" font-size="9.00">Ⓜ Sequence</text>
</g>
<!-- localizationTaskTree&#45;&gt;Sequence -->
<g id="edge4" class="edge">
<title>localizationTaskTree&#45;&gt;Sequence</title>
<path fill="none" stroke="black" d="M463.7,-215.7C463.7,-207.98 463.7,-198.71 463.7,-190.11"/>
<polygon fill="black" stroke="black" points="467.2,-190.1 463.7,-180.1 460.2,-190.1 467.2,-190.1"/>
</g>
<!-- Sequence* -->
<g id="node10" class="node">
<title>Sequence*</title>
<polygon fill="orange" stroke="black" points="852.7,-180 774.7,-180 774.7,-144 852.7,-144 852.7,-180"/>
<text text-anchor="middle" x="813.7" y="-159.8" font-family="Times,serif" font-size="9.00">Ⓜ Sequence*</text>
</g>
<!-- localizationTaskTree&#45;&gt;Sequence* -->
<g id="edge9" class="edge">
<title>localizationTaskTree&#45;&gt;Sequence*</title>
<path fill="none" stroke="black" d="M516.86,-222.37C584.12,-208.92 699.03,-185.93 764.4,-172.86"/>
<polygon fill="black" stroke="black" points="765.33,-176.24 774.45,-170.85 763.96,-169.38 765.33,-176.24"/>
</g>
<!-- SuccessIsFailure -->
<g id="node3" class="node">
<title>SuccessIsFailure</title>
<ellipse fill="ghostwhite" stroke="black" cx="68.7" cy="-90" rx="54.7" ry="18"/>
<text text-anchor="middle" x="68.7" y="-87.8" font-family="Times,serif" font-size="9.00">SuccessIsFailure</text>
</g>
<!-- OneShot&#45;&gt;SuccessIsFailure -->
<g id="edge2" class="edge">
<title>OneShot&#45;&gt;SuccessIsFailure</title>
<path fill="none" stroke="black" d="M224.63,-150.97C195.34,-139.71 147.33,-121.24 112.31,-107.77"/>
<polygon fill="black" stroke="black" points="113.39,-104.44 102.8,-104.11 110.88,-110.97 113.39,-104.44"/>
</g>
<!-- setBlackboard(M = 3) -->
<g id="node4" class="node">
<title>setBlackboard(M = 3)</title>
<ellipse fill="gray" stroke="black" cx="68.7" cy="-18" rx="68.91" ry="18"/>
<text text-anchor="middle" x="68.7" y="-15.8" font-family="Times,serif" font-size="9.00">setBlackboard(M = 3)</text>
</g>
<!-- SuccessIsFailure&#45;&gt;setBlackboard(M = 3) -->
<g id="edge3" class="edge">
<title>SuccessIsFailure&#45;&gt;setBlackboard(M = 3)</title>
<path fill="none" stroke="black" d="M68.7,-71.7C68.7,-63.98 68.7,-54.71 68.7,-46.11"/>
<polygon fill="black" stroke="black" points="72.2,-46.1 68.7,-36.1 65.2,-46.1 72.2,-46.1"/>
</g>
<!-- tryDetectNTimes(yellowFlare,M) -->
<g id="node6" class="node">
<title>tryDetectNTimes(yellowFlare,M)</title>
<ellipse fill="gray" stroke="black" cx="238.7" cy="-90" rx="97.64" ry="18"/>
<text text-anchor="middle" x="238.7" y="-87.8" font-family="Times,serif" font-size="9.00">tryDetectNTimes(yellowFlare,M)</text>
</g>
<!-- Sequence&#45;&gt;tryDetectNTimes(yellowFlare,M) -->
<g id="edge5" class="edge">
<title>Sequence&#45;&gt;tryDetectNTimes(yellowFlare,M)</title>
<path fill="none" stroke="black" d="M426.55,-149.44C390.96,-138.37 336.75,-121.5 295.7,-108.73"/>
<polygon fill="black" stroke="black" points="296.68,-105.37 286.09,-105.74 294.6,-112.06 296.68,-105.37"/>
</g>
<!-- setDepth(depth) -->
<g id="node7" class="node">
<title>setDepth(depth)</title>
<ellipse fill="gray" stroke="black" cx="407.7" cy="-90" rx="53.89" ry="18"/>
<text text-anchor="middle" x="407.7" y="-87.8" font-family="Times,serif" font-size="9.00">setDepth(depth)</text>
</g>
<!-- Sequence&#45;&gt;setDepth(depth) -->
<g id="edge6" class="edge">
<title>Sequence&#45;&gt;setDepth(depth)</title>
<path fill="none" stroke="black" d="M449.86,-143.7C443.05,-135.18 434.72,-124.76 427.26,-115.45"/>
<polygon fill="black" stroke="black" points="429.98,-113.24 421,-107.62 424.52,-117.62 429.98,-113.24"/>
</g>
<!-- rotate(yaw) -->
<g id="node8" class="node">
<title>rotate(yaw)</title>
<ellipse fill="gray" stroke="black" cx="519.7" cy="-90" rx="40.33" ry="18"/>
<text text-anchor="middle" x="519.7" y="-87.8" font-family="Times,serif" font-size="9.00">rotate(yaw)</text>
</g>
<!-- Sequence&#45;&gt;rotate(yaw) -->
<g id="edge7" class="edge">
<title>Sequence&#45;&gt;rotate(yaw)</title>
<path fill="none" stroke="black" d="M477.55,-143.7C484.46,-135.05 492.94,-124.46 500.47,-115.04"/>
<polygon fill="black" stroke="black" points="503.28,-117.14 506.79,-107.14 497.81,-112.77 503.28,-117.14"/>
</g>
<!-- setVelocity(forward) -->
<g id="node9" class="node">
<title>setVelocity(forward)</title>
<ellipse fill="gray" stroke="black" cx="641.7" cy="-90" rx="63.52" ry="18"/>
<text text-anchor="middle" x="641.7" y="-87.8" font-family="Times,serif" font-size="9.00">setVelocity(forward)</text>
</g>
<!-- Sequence&#45;&gt;setVelocity(forward) -->
<g id="edge8" class="edge">
<title>Sequence&#45;&gt;setVelocity(forward)</title>
<path fill="none" stroke="black" d="M501.02,-146.33C528.86,-135.38 567.03,-120.36 596.59,-108.74"/>
<polygon fill="black" stroke="black" points="598.23,-111.86 606.26,-104.94 595.67,-105.34 598.23,-111.86"/>
</g>
<!-- wait(time) -->
<g id="node11" class="node">
<title>wait(time)</title>
<ellipse fill="gray" stroke="black" cx="759.7" cy="-90" rx="36.9" ry="18"/>
<text text-anchor="middle" x="759.7" y="-87.8" font-family="Times,serif" font-size="9.00">wait(time)</text>
</g>
<!-- Sequence*&#45;&gt;wait(time) -->
<g id="edge10" class="edge">
<title>Sequence*&#45;&gt;wait(time)</title>
<path fill="none" stroke="black" d="M800.36,-143.7C793.76,-135.14 785.68,-124.67 778.47,-115.33"/>
<polygon fill="black" stroke="black" points="781.04,-112.92 772.16,-107.14 775.5,-117.2 781.04,-112.92"/>
</g>
<!-- setVelocity(stop) -->
<g id="node12" class="node">
<title>setVelocity(stop)</title>
<ellipse fill="gray" stroke="black" cx="868.7" cy="-90" rx="54.04" ry="18"/>
<text text-anchor="middle" x="868.7" y="-87.8" font-family="Times,serif" font-size="9.00">setVelocity(stop)</text>
</g>
<!-- Sequence*&#45;&gt;setVelocity(stop) -->
<g id="edge11" class="edge">
<title>Sequence*&#45;&gt;setVelocity(stop)</title>
<path fill="none" stroke="black" d="M827.3,-143.7C833.92,-135.27 842.01,-124.97 849.27,-115.73"/>
<polygon fill="black" stroke="black" points="852.22,-117.65 855.64,-107.62 846.71,-113.32 852.22,-117.65"/>
</g>
<!-- rotate(yaw)* -->
<g id="node13" class="node">
<title>rotate(yaw)*</title>
<ellipse fill="gray" stroke="black" cx="983.7" cy="-90" rx="42.95" ry="18"/>
<text text-anchor="middle" x="983.7" y="-87.8" font-family="Times,serif" font-size="9.00">rotate(yaw)*</text>
</g>
<!-- Sequence*&#45;&gt;rotate(yaw)* -->
<g id="edge12" class="edge">
<title>Sequence*&#45;&gt;rotate(yaw)*</title>
<path fill="none" stroke="black" d="M852.71,-144.94C880.33,-133.57 917.22,-118.37 944.82,-107.01"/>
<polygon fill="black" stroke="black" points="946.25,-110.21 954.16,-103.16 943.58,-103.74 946.25,-110.21"/>
</g>
</g>
</svg>
